<mxfile host="app.diagrams.net" agent="Mozilla/5.0 (X11; Ubuntu; Linux x86_64; rv:143.0) Gecko/20100101 Firefox/143.0" version="28.2.5">
  <diagram name="Seite-1" id="tv3RCUC1lsHie5otSo7a">
    <mxGraphModel dx="1056" dy="612" grid="1" gridSize="10" guides="1" tooltips="1" connect="1" arrows="1" fold="1" page="1" pageScale="1" pageWidth="827" pageHeight="1169" math="0" shadow="0">
      <root>
        <mxCell id="0" />
        <mxCell id="1" parent="0" />
        <mxCell id="zjGeTOThquZhaolVEsW3-137" value="" style="html=1;dropTarget=0;whiteSpace=wrap;" vertex="1" parent="1">
          <mxGeometry x="310" y="290" width="330" height="430" as="geometry" />
        </mxCell>
        <mxCell id="zjGeTOThquZhaolVEsW3-138" value="" style="shape=module;jettyWidth=8;jettyHeight=4;" vertex="1" parent="zjGeTOThquZhaolVEsW3-137">
          <mxGeometry x="1" width="20" height="20" relative="1" as="geometry">
            <mxPoint x="-27" y="7" as="offset" />
          </mxGeometry>
        </mxCell>
        <mxCell id="zjGeTOThquZhaolVEsW3-139" value="&lt;div&gt;«component»&lt;b&gt;&lt;br&gt;&lt;/b&gt;&lt;/div&gt;&lt;div&gt;&lt;b&gt;Common Model&lt;/b&gt;&lt;/div&gt;" style="html=1;dropTarget=0;whiteSpace=wrap;" vertex="1" parent="1">
          <mxGeometry x="70" y="410.5" width="140" height="80" as="geometry" />
        </mxCell>
        <mxCell id="zjGeTOThquZhaolVEsW3-140" value="" style="shape=module;jettyWidth=8;jettyHeight=4;" vertex="1" parent="zjGeTOThquZhaolVEsW3-139">
          <mxGeometry x="1" width="20" height="20" relative="1" as="geometry">
            <mxPoint x="-27" y="7" as="offset" />
          </mxGeometry>
        </mxCell>
        <mxCell id="zjGeTOThquZhaolVEsW3-141" value="" style="html=1;verticalAlign=bottom;labelBackgroundColor=none;endArrow=oval;endFill=0;endSize=8;rounded=0;" edge="1" parent="1">
          <mxGeometry width="160" relative="1" as="geometry">
            <mxPoint x="210" y="450.21000000000004" as="sourcePoint" />
            <mxPoint x="240" y="450.21000000000004" as="targetPoint" />
          </mxGeometry>
        </mxCell>
        <mxCell id="zjGeTOThquZhaolVEsW3-142" value="Common-Facade" style="text;html=1;align=center;verticalAlign=middle;whiteSpace=wrap;rounded=0;fontSize=8;" vertex="1" parent="1">
          <mxGeometry x="210" y="410" width="60" height="30" as="geometry" />
        </mxCell>
        <mxCell id="zjGeTOThquZhaolVEsW3-143" value="&lt;div&gt;«component»&lt;b&gt;&lt;br&gt;&lt;/b&gt;&lt;/div&gt;&lt;div&gt;&lt;b&gt;View&lt;/b&gt;&lt;/div&gt;" style="html=1;dropTarget=0;whiteSpace=wrap;" vertex="1" parent="1">
          <mxGeometry x="460" y="620" width="140" height="70" as="geometry" />
        </mxCell>
        <mxCell id="zjGeTOThquZhaolVEsW3-144" value="" style="shape=module;jettyWidth=8;jettyHeight=4;" vertex="1" parent="zjGeTOThquZhaolVEsW3-143">
          <mxGeometry x="1" width="20" height="20" relative="1" as="geometry">
            <mxPoint x="-27" y="7" as="offset" />
          </mxGeometry>
        </mxCell>
        <mxCell id="zjGeTOThquZhaolVEsW3-145" value="&lt;div&gt;«component»&lt;b&gt;&lt;br&gt;&lt;/b&gt;&lt;/div&gt;&lt;div&gt;&lt;b&gt;ViewModel&lt;/b&gt;&lt;/div&gt;" style="html=1;dropTarget=0;whiteSpace=wrap;" vertex="1" parent="1">
          <mxGeometry x="460" y="480" width="140" height="70" as="geometry" />
        </mxCell>
        <mxCell id="zjGeTOThquZhaolVEsW3-146" value="" style="shape=module;jettyWidth=8;jettyHeight=4;" vertex="1" parent="zjGeTOThquZhaolVEsW3-145">
          <mxGeometry x="1" width="20" height="20" relative="1" as="geometry">
            <mxPoint x="-27" y="7" as="offset" />
          </mxGeometry>
        </mxCell>
        <mxCell id="zjGeTOThquZhaolVEsW3-147" value="&lt;div&gt;«component»&lt;b&gt;&lt;br&gt;&lt;/b&gt;&lt;/div&gt;&lt;div&gt;&lt;b&gt;Active Model&lt;/b&gt;&lt;/div&gt;" style="html=1;dropTarget=0;whiteSpace=wrap;" vertex="1" parent="1">
          <mxGeometry x="460" y="320" width="140" height="80" as="geometry" />
        </mxCell>
        <mxCell id="zjGeTOThquZhaolVEsW3-148" value="" style="shape=module;jettyWidth=8;jettyHeight=4;" vertex="1" parent="zjGeTOThquZhaolVEsW3-147">
          <mxGeometry x="1" width="20" height="20" relative="1" as="geometry">
            <mxPoint x="-27" y="7" as="offset" />
          </mxGeometry>
        </mxCell>
        <mxCell id="zjGeTOThquZhaolVEsW3-149" value="" style="html=1;verticalAlign=bottom;labelBackgroundColor=none;endArrow=oval;endFill=0;endSize=8;rounded=0;" edge="1" parent="1" source="zjGeTOThquZhaolVEsW3-145">
          <mxGeometry width="160" relative="1" as="geometry">
            <mxPoint x="310" y="495" as="sourcePoint" />
            <mxPoint x="530" y="580" as="targetPoint" />
          </mxGeometry>
        </mxCell>
        <mxCell id="zjGeTOThquZhaolVEsW3-150" value="View-Model" style="text;html=1;align=center;verticalAlign=middle;whiteSpace=wrap;rounded=0;fontSize=8;" vertex="1" parent="1">
          <mxGeometry x="460" y="565" width="60" height="30" as="geometry" />
        </mxCell>
        <mxCell id="zjGeTOThquZhaolVEsW3-153" value="" style="rounded=0;orthogonalLoop=1;jettySize=auto;html=1;endArrow=halfCircle;endFill=0;endSize=6;strokeWidth=1;sketch=0;fontSize=12;" edge="1" parent="1" source="zjGeTOThquZhaolVEsW3-143">
          <mxGeometry relative="1" as="geometry">
            <mxPoint x="630" y="575" as="sourcePoint" />
            <mxPoint x="530" y="580" as="targetPoint" />
          </mxGeometry>
        </mxCell>
        <mxCell id="zjGeTOThquZhaolVEsW3-155" value="" style="html=1;verticalAlign=bottom;labelBackgroundColor=none;endArrow=oval;endFill=0;endSize=8;rounded=0;" edge="1" parent="1">
          <mxGeometry width="160" relative="1" as="geometry">
            <mxPoint x="500" y="390" as="sourcePoint" />
            <mxPoint x="500" y="430" as="targetPoint" />
          </mxGeometry>
        </mxCell>
        <mxCell id="zjGeTOThquZhaolVEsW3-156" value="" style="rounded=0;orthogonalLoop=1;jettySize=auto;html=1;endArrow=halfCircle;endFill=0;endSize=6;strokeWidth=1;sketch=0;fontSize=12;" edge="1" parent="1" source="zjGeTOThquZhaolVEsW3-145">
          <mxGeometry relative="1" as="geometry">
            <mxPoint x="549" y="560" as="sourcePoint" />
            <mxPoint x="430" y="515" as="targetPoint" />
          </mxGeometry>
        </mxCell>
        <mxCell id="zjGeTOThquZhaolVEsW3-157" value="" style="html=1;verticalAlign=bottom;labelBackgroundColor=none;endArrow=oval;endFill=0;endSize=8;rounded=0;" edge="1" parent="1">
          <mxGeometry width="160" relative="1" as="geometry">
            <mxPoint x="560" y="390" as="sourcePoint" />
            <mxPoint x="560" y="430" as="targetPoint" />
          </mxGeometry>
        </mxCell>
        <mxCell id="zjGeTOThquZhaolVEsW3-158" value="Scraping-Service" style="text;html=1;align=center;verticalAlign=middle;whiteSpace=wrap;rounded=0;fontSize=8;" vertex="1" parent="1">
          <mxGeometry x="420" y="410" width="80" height="30" as="geometry" />
        </mxCell>
        <mxCell id="zjGeTOThquZhaolVEsW3-159" value="Config-Service" style="text;html=1;align=center;verticalAlign=middle;whiteSpace=wrap;rounded=0;fontSize=8;" vertex="1" parent="1">
          <mxGeometry x="570" y="410" width="60" height="30" as="geometry" />
        </mxCell>
        <mxCell id="zjGeTOThquZhaolVEsW3-160" value="" style="rounded=0;orthogonalLoop=1;jettySize=auto;html=1;endArrow=halfCircle;endFill=0;endSize=6;strokeWidth=1;sketch=0;fontSize=12;" edge="1" parent="1" source="zjGeTOThquZhaolVEsW3-145">
          <mxGeometry relative="1" as="geometry">
            <mxPoint x="470" y="501" as="sourcePoint" />
            <mxPoint x="500" y="430" as="targetPoint" />
          </mxGeometry>
        </mxCell>
        <mxCell id="zjGeTOThquZhaolVEsW3-161" value="" style="rounded=0;orthogonalLoop=1;jettySize=auto;html=1;endArrow=halfCircle;endFill=0;endSize=6;strokeWidth=1;sketch=0;fontSize=12;" edge="1" parent="1" source="zjGeTOThquZhaolVEsW3-145">
          <mxGeometry relative="1" as="geometry">
            <mxPoint x="528" y="490" as="sourcePoint" />
            <mxPoint x="560" y="430" as="targetPoint" />
          </mxGeometry>
        </mxCell>
        <mxCell id="zjGeTOThquZhaolVEsW3-162" value="" style="html=1;rounded=0;" vertex="1" parent="1">
          <mxGeometry x="320" y="440" width="20" height="21" as="geometry" />
        </mxCell>
        <mxCell id="zjGeTOThquZhaolVEsW3-163" value="&lt;div&gt;&lt;div&gt;«delegate»&lt;/div&gt;&lt;/div&gt;" style="rounded=0;orthogonalLoop=1;jettySize=auto;html=1;dashed=1;dashPattern=8 8;spacingBottom=22;" edge="1" parent="1" target="zjGeTOThquZhaolVEsW3-162">
          <mxGeometry relative="1" as="geometry">
            <mxPoint x="440" y="535" as="targetPoint" />
            <mxPoint x="430" y="515" as="sourcePoint" />
          </mxGeometry>
        </mxCell>
        <mxCell id="zjGeTOThquZhaolVEsW3-164" value="&lt;div&gt;&lt;div&gt;«component»&lt;/div&gt;&lt;/div&gt;&lt;div&gt;&lt;b&gt;Active Client&lt;/b&gt;&lt;/div&gt;" style="text;html=1;align=center;verticalAlign=middle;whiteSpace=wrap;rounded=0;" vertex="1" parent="1">
          <mxGeometry x="340" y="295" width="100" height="50" as="geometry" />
        </mxCell>
        <mxCell id="zjGeTOThquZhaolVEsW3-165" value="&lt;div&gt;&lt;div&gt;«delegate»&lt;/div&gt;&lt;/div&gt;" style="rounded=0;orthogonalLoop=1;jettySize=auto;html=1;dashed=1;dashPattern=8 8;spacingBottom=22;" edge="1" parent="1" source="zjGeTOThquZhaolVEsW3-162">
          <mxGeometry relative="1" as="geometry">
            <mxPoint x="240" y="450" as="targetPoint" />
            <mxPoint x="310" y="510" as="sourcePoint" />
          </mxGeometry>
        </mxCell>
        <mxCell id="zjGeTOThquZhaolVEsW3-166" value="" style="rounded=0;orthogonalLoop=1;jettySize=auto;html=1;endArrow=halfCircle;endFill=0;endSize=6;strokeWidth=1;sketch=0;fontSize=12;" edge="1" parent="1" source="zjGeTOThquZhaolVEsW3-147">
          <mxGeometry relative="1" as="geometry">
            <mxPoint x="528" y="490" as="sourcePoint" />
            <mxPoint x="430" y="360" as="targetPoint" />
          </mxGeometry>
        </mxCell>
        <mxCell id="zjGeTOThquZhaolVEsW3-167" value="&lt;div&gt;&lt;div&gt;«delegate»&lt;/div&gt;&lt;/div&gt;" style="rounded=0;orthogonalLoop=1;jettySize=auto;html=1;dashed=1;dashPattern=8 8;spacingBottom=22;" edge="1" parent="1" target="zjGeTOThquZhaolVEsW3-162">
          <mxGeometry relative="1" as="geometry">
            <mxPoint x="350" y="467" as="targetPoint" />
            <mxPoint x="430" y="360" as="sourcePoint" />
          </mxGeometry>
        </mxCell>
      </root>
    </mxGraphModel>
  </diagram>
</mxfile>
